<?xml version="1.0" encoding="UTF-8"?>
<!DOCTYPE svg PUBLIC "-//W3C//DTD SVG 1.1//EN" "http://www.w3.org/Graphics/SVG/1.1/DTD/svg11.dtd">
<svg xmlns="http://www.w3.org/2000/svg" version="1.1" width="520px" height="200px" style="shape-rendering:geometricPrecision; text-rendering:geometricPrecision; image-rendering:optimizeQuality; fill-rule:evenodd; clip-rule:evenodd" xmlns:xlink="http://www.w3.org/1999/xlink">
<g><path style="opacity:0.967" fill="#009ffc" d="M 333.5,4.5 C 338.741,6.90564 342.908,10.5723 346,15.5C 346.276,24.4386 347.109,33.2719 348.5,42C 348.043,42.414 347.709,42.914 347.5,43.5C 353.52,44.233 359.52,43.8997 365.5,42.5C 375.456,47.3196 377.123,54.1529 370.5,63C 363.067,64.6362 355.733,66.4695 348.5,68.5C 351.22,94.824 354.553,120.991 358.5,147C 356.735,155.774 351.568,160.607 343,161.5C 337.762,160.947 333.429,158.614 330,154.5C 329.667,153.5 329.333,152.5 329,151.5C 325.21,127.287 321.877,102.954 319,78.5C 311.501,84.9574 304.168,84.9574 297,78.5C 296.661,75.964 296.161,73.464 295.5,71C 296.951,68.0467 298.618,65.2133 300.5,62.5C 306.378,59.9786 312.211,57.3119 318,54.5C 318.529,46.5822 318.029,38.5822 316.5,30.5C 316.289,24.4742 316.789,18.4742 318,12.5C 321.995,7.28983 327.162,4.62316 333.5,4.5 Z"/></g>
<g><path style="opacity:0.927" fill="#00a0fe" d="M 211.5,13.5 C 215.151,13.7461 218.651,13.7461 222,13.5C 225.086,16.5171 228.086,19.5171 231,22.5C 235.932,65.9893 240.766,109.489 245.5,153C 245.064,159.004 242.398,163.671 237.5,167C 227.863,170.354 220.697,167.521 216,158.5C 211.166,114.991 206.332,71.4914 201.5,28C 202.333,25.5 203.167,23 204,20.5C 206.479,18.0343 208.979,15.701 211.5,13.5 Z"/></g>
<g><path style="opacity:0.992" fill="#009efa" d="M 268.5,12.5 C 281.171,14.5935 285.671,21.9268 282,34.5C 278.75,40.2934 273.75,42.96 267,42.5C 257.853,40.5203 253.353,34.8536 253.5,25.5C 255.262,21.8947 257.262,18.3947 259.5,15C 262.579,14.0272 265.579,13.1939 268.5,12.5 Z"/></g>
<g><path style="opacity:0.976" fill="#f80f00" d="M 405.5,21.5 C 412.221,21.0105 418.221,22.6772 423.5,26.5C 428.345,36.9544 425.678,45.1211 415.5,51C 404.662,52.6602 397.996,48.1602 395.5,37.5C 396.091,30.319 399.424,24.9856 405.5,21.5 Z"/></g>
<g><path style="opacity:0.978" fill="#00a0fd" d="M 51.5,29.5 C 73.0551,32.8885 85.3885,45.3885 88.5,67C 87.2933,70.0175 87.2933,73.0175 88.5,76C 85.0398,94.2439 77.8731,111.077 67,126.5C 59.675,136.156 50.3417,143.156 39,147.5C 39.1125,156.688 40.2792,165.688 42.5,174.5C 41.5074,185.444 35.5074,190.278 24.5,189C 20.1918,187.701 16.6918,185.201 14,181.5C 8.86495,157.119 6.03162,132.452 5.5,107.5C 4.02014,97.0747 3.02014,86.7414 2.5,76.5C 2.75621,70.1405 2.75621,63.8072 2.5,57.5C 3.95717,48.3764 9.2905,43.3764 18.5,42.5C 20.986,41.18 22.986,39.3467 24.5,37C 33.0485,32.5834 42.0485,30.0834 51.5,29.5 Z M 46.5,59.5 C 52.5156,59.0871 56.3489,61.7538 58,67.5C 58.1267,70.6041 58.2934,73.6041 58.5,76.5C 54.5355,91.6098 47.0355,104.61 36,115.5C 34.6258,111.016 33.7925,106.35 33.5,101.5C 33.5901,99.7722 33.9234,98.1056 34.5,96.5C 32.9117,89.3539 32.245,82.1872 32.5,75C 35.6842,68.3242 40.3509,63.1576 46.5,59.5 Z"/></g>
<g><path style="opacity:0.969" fill="#009ffb" d="M 270.5,53.5 C 273.59,54.3528 276.59,55.3528 279.5,56.5C 280.383,58.9095 281.55,61.2429 283,63.5C 284.449,69.9075 284.282,76.0741 282.5,82C 283.256,90.2441 283.256,98.5775 282.5,107C 283.203,118.593 285.203,129.926 288.5,141C 286.256,152.783 278.923,157.116 266.5,154C 263.722,152.888 261.555,151.055 260,148.5C 257.465,139.624 255.465,130.624 254,121.5C 252.93,108.478 252.43,95.6443 252.5,83C 252.736,75.8359 253.903,68.6692 256,61.5C 259.56,56.3074 264.393,53.6407 270.5,53.5 Z"/></g>
<g><path style="opacity:0.984" fill="#00a0fc" d="M 147.5,61.5 C 155.319,60.489 160.819,63.489 164,70.5C 179.896,81.2801 188.896,96.2801 191,115.5C 192.859,125.843 192.859,136.176 191,146.5C 184.626,174.835 167.459,184.668 139.5,176C 136.341,173.734 133.007,171.901 129.5,170.5C 126.798,168.058 123.965,165.724 121,163.5C 102.334,136.905 100.001,109.238 114,80.5C 117.065,77.938 119.565,74.938 121.5,71.5C 129.249,65.5631 137.916,62.2297 147.5,61.5 Z M 142.5,92.5 C 143.552,92.3505 144.552,92.5172 145.5,93C 147.692,96.6922 150.692,99.5255 154.5,101.5C 163.522,115.518 165.355,130.518 160,146.5C 159.255,147.99 158.088,148.99 156.5,149.5C 150.513,148.673 145.513,146.006 141.5,141.5C 135.403,130.249 133.57,118.249 136,105.5C 137.328,100.641 139.495,96.3078 142.5,92.5 Z"/></g>
<g><path style="opacity:0.965" fill="#fa0f00" d="M 398.5,61.5 C 409.991,61.1624 416.324,66.6624 417.5,78C 411.684,95.6926 407.35,113.526 404.5,131.5C 405.274,136.372 405.607,141.206 405.5,146C 403.45,161.022 395.45,165.689 381.5,160C 377.057,156.779 374.723,152.445 374.5,147C 375.049,141.763 375.049,136.597 374.5,131.5C 375.941,123.851 377.275,116.184 378.5,108.5C 377.295,106.879 377.461,105.546 379,104.5C 381.897,91.9042 385.564,79.5709 390,67.5C 392.736,65.2481 395.569,63.2481 398.5,61.5 Z"/></g>
<g><path style="opacity:0.977" fill="#fc0f00" d="M 513.5,124.5 C 511.933,125.681 511.099,127.347 511,129.5C 510.186,134.02 510.353,138.354 511.5,142.5C 509.218,155.727 503.218,167.06 493.5,176.5C 485.298,182.642 476.298,185.142 466.5,184C 445.366,177.866 432.533,164.033 428,142.5C 424.742,121.295 428.742,101.628 440,83.5C 452.138,68.2643 467.638,62.7643 486.5,67C 492.548,69.0464 496.048,73.213 497,79.5C 508.774,92.3494 514.274,107.349 513.5,124.5 Z M 469.5,96.5 C 470.833,96.5 472.167,96.5 473.5,96.5C 473.351,97.552 473.517,98.552 474,99.5C 477.717,102.742 480.383,106.742 482,111.5C 482.871,118.689 483.371,125.689 483.5,132.5C 481.56,139.047 479.06,145.381 476,151.5C 474.064,154.887 471.564,155.387 468.5,153C 459.735,147.076 455.735,138.742 456.5,128C 457.201,115.794 461.534,105.294 469.5,96.5 Z"/></g>
<g><path style="opacity:0.502" fill="#c50b00" d="M 513.5,124.5 C 513.569,130.457 512.902,136.457 511.5,142.5C 510.353,138.354 510.186,134.02 511,129.5C 511.099,127.347 511.933,125.681 513.5,124.5 Z"/></g>
</svg>
