<svg version="1.1" id="Layer_1" xmlns="http://www.w3.org/2000/svg" xmlns:xlink="http://www.w3.org/1999/xlink" x="0px" y="0px"
	 width="100%" viewBox="0 0 775 195" enable-background="new 0 0 775 195" xml:space="preserve">
<path fill="#00A9FF" opacity="1.000000" stroke="none" 
	d="
M83.591850,115.759857 
	C79.151283,116.984924 74.904984,117.614349 71.089455,119.249146 
	C69.569244,119.900490 68.128075,122.779686 68.138664,124.636185 
	C68.220901,139.058319 68.892441,153.478409 68.889618,167.899048 
	C68.888474,173.732208 67.975204,179.629227 66.807983,185.360962 
	C66.434746,187.193726 64.163124,189.448593 62.313515,189.992950 
	C59.096725,190.939651 55.473980,191.175400 52.140652,190.757736 
	C50.620102,190.567215 48.526798,188.299011 48.164635,186.650024 
	C46.494328,179.044800 44.346165,171.347748 44.176472,163.643799 
	C43.440754,130.242416 43.245914,96.827568 43.076645,63.416489 
	C43.041004,56.381283 43.942238,49.341331 44.491638,41.106579 
	C39.517742,43.672226 35.837952,46.006447 31.844738,47.506111 
	C27.938618,48.973076 24.393047,51.888149 19.502701,50.249935 
	C14.403048,48.541607 10.770468,45.957512 10.005713,40.361588 
	C9.023795,33.176620 11.868555,27.389797 17.977964,24.156534 
	C33.695564,15.838366 50.442673,10.350653 68.273300,9.063341 
	C82.423332,8.041756 96.646324,6.807284 110.788239,7.243938 
	C124.671555,7.672607 138.195526,11.335498 147.257721,23.062838 
	C150.989716,27.892399 153.611420,33.999897 155.250916,39.936836 
	C158.421341,51.417610 158.756210,63.491924 150.932495,73.130661 
	C144.068085,81.587555 136.200607,90.089417 126.992920,95.581963 
	C113.481995,103.641479 98.381866,109.036873 83.591850,115.759857 
M118.527557,31.988005 
	C116.774200,31.658669 114.997978,30.953810 113.271088,31.058985 
	C98.505959,31.958244 83.743896,32.933273 69.002930,34.151878 
	C67.915054,34.241814 66.141457,36.394745 66.130150,37.602108 
	C65.948723,56.972412 66.002129,76.344917 66.002129,95.716919 
	C66.649178,96.123070 67.296234,96.529228 67.943283,96.935387 
	C81.248962,90.823326 94.910416,85.365166 107.742928,78.383408 
	C117.273094,73.198357 126.072563,66.564011 131.905640,56.707249 
	C140.320648,42.487514 129.556091,32.632008 118.527557,31.988005 
z"/>
<path fill="#F30731" opacity="1.000000" stroke="none" 
	d="
M734.718201,181.197800 
	C725.664307,167.393188 716.900208,153.821365 708.005798,140.335464 
	C707.164734,139.060257 705.169617,137.273544 704.293884,137.553040 
	C702.342224,138.175903 700.445496,139.706024 699.135437,141.351364 
	C698.230225,142.488403 698.135986,144.423096 698.034485,146.023849 
	C697.303467,157.553955 696.755432,169.096527 695.922058,180.618683 
	C695.738647,183.153610 695.128906,185.910782 693.855469,188.054764 
	C691.918335,191.316208 689.267761,193.903458 684.844421,194.082214 
	C680.121033,194.273071 677.665039,191.125305 676.162598,187.876465 
	C673.867310,182.912750 671.816101,177.538940 671.192444,172.161652 
	C669.921021,161.198654 669.012024,150.106567 669.190247,139.087646 
	C669.359558,128.615692 671.312073,118.183823 672.051636,107.704056 
	C672.328064,103.787766 670.971313,99.774071 671.082825,95.825203 
	C671.554443,79.119736 672.274353,62.420971 672.954590,45.721844 
	C673.237061,38.786064 673.601807,31.852757 674.017334,24.923611 
	C674.263123,20.824242 674.507324,16.711071 675.070801,12.648287 
	C675.640686,8.539447 683.508789,4.932837 688.559998,6.255215 
	C696.018677,8.207851 701.187378,14.505198 700.886475,23.104095 
	C700.274780,40.586437 698.803040,58.037773 698.119080,75.518845 
	C697.686890,86.564514 698.038391,97.640862 698.038391,109.126778 
	C702.884827,107.163338 708.146790,105.114502 713.342529,102.909554 
	C724.596619,98.133568 735.829773,93.307388 747.045166,88.441132 
	C752.108276,86.244247 765.223328,92.923630 766.006531,99.793198 
	C766.544434,104.512047 763.940674,108.011459 760.506226,109.973747 
	C751.632202,115.044052 742.347473,119.395844 733.221497,124.024261 
	C732.213013,124.535728 731.170593,124.980263 729.555664,125.728348 
	C731.791016,130.381897 733.607117,135.109329 736.193298,139.369293 
	C743.981812,152.199142 751.971008,164.910858 760.102539,177.526489 
	C762.517578,181.273285 762.703796,184.465469 759.724121,187.770493 
	C756.664734,191.164047 753.123535,193.841537 748.536865,191.050186 
	C743.816772,188.177658 739.477844,184.678955 734.718201,181.197800 
z"/>
<path fill="#2195E2" opacity="1.000000" stroke="none" 
	d="
M141.152069,175.692764 
	C135.641846,166.031494 136.000183,156.325790 140.038391,146.827454 
	C148.098114,127.869995 160.363358,112.298996 178.474869,101.921158 
	C189.647720,95.519157 200.810028,95.635803 212.009308,102.389519 
	C221.274658,107.976982 230.859848,113.110947 235.330933,123.787445 
	C241.245621,137.911163 240.965851,156.493881 229.455551,169.221786 
	C219.872375,179.818710 208.949051,188.525436 195.160385,192.198105 
	C176.299820,197.221649 158.949341,193.528839 144.356598,179.848160 
	C143.189224,178.753784 142.379837,177.277542 141.152069,175.692764 
M209.014923,128.576828 
	C202.665146,122.190079 199.059250,121.142914 193.249588,125.467323 
	C181.537338,134.185303 172.158279,145.155685 165.164810,157.947571 
	C161.748734,164.195999 164.930405,168.798569 172.112000,168.955124 
	C173.869003,168.993423 175.648895,168.526352 177.400101,168.195465 
	C186.835052,166.412750 195.050919,161.939407 202.873581,156.602371 
	C214.483459,148.681473 216.372223,140.915833 209.014923,128.576828 
z"/>
<path fill="#4E75BD" opacity="1.000000" stroke="none" 
	d="
M290.000000,67.999313 
	C290.334625,81.427353 290.539429,94.360619 291.040497,107.282402 
	C291.539673,120.154854 292.322845,133.016495 293.006134,145.881577 
	C293.654144,158.082260 294.319214,170.282089 295.007751,182.480545 
	C295.255188,186.864731 293.858765,190.415497 289.519867,191.916595 
	C284.047821,193.809723 278.812347,192.159332 276.030029,188.133987 
	C270.848236,180.637253 269.034698,171.930939 268.133942,163.214722 
	C266.644287,148.800522 265.412964,134.311203 265.114319,119.832069 
	C264.415039,85.926903 264.305023,52.009235 264.021942,18.096081 
	C263.954926,10.068971 273.178528,4.969037 282.427490,10.039797 
	C289.510468,13.923039 290.799652,21.177776 290.867828,28.216370 
	C290.994629,41.306721 290.333252,54.404705 290.000000,67.999313 
z"/>
<path fill="#C42759" opacity="1.000000" stroke="none" 
	d="
M620.437622,124.275978 
	C607.104370,126.696053 597.182251,134.540497 587.258362,142.309784 
	C583.885132,144.950577 580.661560,147.834549 577.674072,150.903793 
	C573.169312,155.531769 573.876099,160.216202 579.865479,162.237549 
	C587.102722,164.680023 594.609375,167.261414 602.123047,167.709198 
	C611.459229,168.265579 620.934631,166.841843 630.324524,165.992661 
	C635.155457,165.555771 640.466675,169.206375 642.974854,175.230042 
	C646.371155,183.386429 642.828613,187.731827 635.934692,189.871216 
	C625.877197,192.992340 615.754089,194.308838 604.955261,193.316116 
	C593.755737,192.286560 583.190796,190.193054 573.472351,184.713379 
	C564.956970,179.912109 557.153259,174.277939 553.674255,164.349686 
	C549.212402,151.616745 552.033081,140.119766 560.915527,130.855072 
	C576.571716,114.525116 595.862854,103.670464 617.837708,98.345184 
	C626.564209,96.230461 635.115723,98.052734 641.466614,105.756630 
	C644.231262,109.110291 645.028198,113.002388 643.562012,116.390198 
	C642.106445,119.753632 638.847961,121.981590 634.415100,122.126747 
	C629.867249,122.275681 625.351318,123.398842 620.437622,124.275978 
z"/>
<path fill="#825390" opacity="1.000000" stroke="none" 
	d="
M443.374237,188.156219 
	C439.887573,195.940582 430.814392,193.141678 428.182800,186.982300 
	C425.454102,180.595566 423.335602,173.772354 422.175598,166.932236 
	C420.419800,156.578583 419.724731,146.045044 418.544159,135.270508 
	C415.459503,136.303162 412.346130,137.520676 409.138031,138.387604 
	C398.050415,141.383865 389.488464,133.551727 388.342682,123.309364 
	C387.907776,119.421822 390.995361,116.350327 394.721619,114.720268 
	C401.468536,111.768845 408.160919,108.631317 415.096405,106.200043 
	C418.239716,105.098145 419.295532,103.696320 419.037872,100.612816 
	C418.844452,98.297897 418.991974,95.953804 419.001801,93.622749 
	C419.022247,88.771851 421.760895,85.254021 426.455444,84.032776 
	C431.957458,82.601479 436.768738,84.157196 439.062134,88.446434 
	C440.825592,91.744560 442.209015,95.245872 443.291687,97.624779 
	C450.678528,97.403366 457.768158,96.732109 464.805176,97.091530 
	C474.453552,97.584328 475.934235,103.609375 476.896790,109.964348 
	C477.690735,115.206131 473.137177,120.994339 466.778076,122.885338 
	C460.997986,124.604179 455.020996,125.652863 449.151703,127.082817 
	C445.786621,127.902657 444.246307,128.782364 444.637390,133.594116 
	C445.858276,148.616028 445.781372,163.753769 445.869995,178.848587 
	C445.887543,181.842743 444.406036,184.845688 443.374237,188.156219 
z"/>
<path fill="#6467A9" opacity="1.000000" stroke="none" 
	d="
M357.000000,129.015503 
	C357.000000,146.497971 357.001770,163.483215 356.999115,180.468460 
	C356.998108,187.099533 354.284393,191.035217 348.550751,192.742874 
	C344.792175,193.862274 338.706329,190.408234 335.934753,185.790192 
	C331.659210,178.666214 330.353546,170.662949 330.138428,162.700928 
	C329.684357,145.894470 329.963470,129.067032 330.046997,112.248726 
	C330.057404,110.158737 330.047211,107.551331 331.198486,106.093208 
	C333.516418,103.157486 336.449554,99.063049 339.460419,98.761932 
	C342.747894,98.433144 347.167633,101.119751 349.761322,103.787468 
	C356.353027,110.567284 357.942993,119.284142 357.000000,129.015503 
z"/>
<path fill="#A23E76" opacity="1.000000" stroke="none" 
	d="
M525.993042,116.536713 
	C525.998413,131.457886 525.896912,145.933212 526.045166,160.405975 
	C526.114441,167.171692 526.790710,173.929321 526.961243,180.696442 
	C527.102173,186.287247 523.673767,190.647095 518.233582,192.344559 
	C513.881042,193.702637 509.019409,192.050766 506.543243,186.840149 
	C503.716095,180.890976 500.845703,174.467499 500.269745,168.046021 
	C499.058624,154.542053 499.181030,140.906006 499.067291,127.321564 
	C499.013489,120.894653 499.385620,114.428375 500.119690,108.043732 
	C500.579620,104.043358 502.557129,100.581261 506.836914,99.064217 
	C510.859314,97.638412 514.615784,98.633453 516.967773,101.681717 
	C520.412659,106.146446 523.022644,111.255409 525.993042,116.536713 
z"/>
<path fill="#6467A9" opacity="1.000000" stroke="none" 
	d="
M327.047211,75.100037 
	C332.802917,64.522896 340.953552,64.236885 347.549194,74.016747 
	C348.916748,76.044518 350.394196,78.015419 351.572388,80.149757 
	C353.478058,83.602097 353.723236,87.693451 350.735748,90.062408 
	C348.010345,92.223557 343.873016,93.970734 340.536652,93.699860 
	C334.292725,93.192909 324.947662,83.536530 327.047211,75.100037 
z"/>
<path fill="#A23E76" opacity="1.000000" stroke="none" 
	d="
M496.930511,74.230148 
	C501.572723,65.675179 508.418610,64.643784 514.866760,71.492516 
	C517.290466,74.066795 519.541565,77.116280 520.854492,80.360641 
	C523.874634,87.823692 520.013855,93.432800 512.016235,93.983322 
	C503.555725,94.565712 494.456238,82.964653 496.930511,74.230148 
z"/>
</svg>