 <svg version="1.0" xmlns="http://www.w3.org/2000/svg" width="700.000000pt" height="200.000000pt" viewBox="0 0 700.000000 200.000000" preserveAspectRatio="xMidYMid meet">
<metadata>
Created by potrace 1.12, written by Peter Selinger 2001-2015
</metadata>
<g transform="translate(0.000000,200.000000) scale(0.100000,-0.100000)" fill="#000000" stroke="none">
<path style = "fill: blue;" d="M3230 1736 l-65 -11 1 -45 c0 -25 6 -97 13 -160 7 -63 17 -151 22
-195 4 -44 12 -123 18 -175 6 -52 15 -140 20 -195 16 -170 32 -280 41 -289 10
-10 168 3 175 14 5 8 -12 209 -36 435 -5 50 -14 133 -20 185 -5 52 -14 133
-19 180 -5 47 -12 121 -16 165 -9 114 -9 113 -134 91z m94 -38 c2 -7 9 -62 15
-123 7 -60 16 -150 22 -200 39 -371 58 -558 61 -610 l3 -60 -54 -9 c-68 -12
-76 -3 -85 96 -7 78 -11 122 -56 533 -41 381 -39 359 -22 373 9 6 38 12 64 12
30 0 50 -5 52 -12z"></path>
<path style = "fill: blue;" d="M2970 1729 c-41 -4 -122 -13 -180 -19 -58 -7 -134 -15 -170 -18 l-65
-7 2 -83 c1 -47 7 -89 13 -98 15 -17 49 -18 102 -2 56 17 63 4 76 -137 21
-219 73 -680 81 -710 8 -33 17 -35 118 -20 84 12 80 -3 53 255 -6 52 -15 140
-21 195 -5 55 -15 141 -20 190 -21 190 -26 240 -23 246 2 4 31 9 65 13 104 12
109 16 108 83 -1 32 -4 72 -8 88 -7 35 -17 37 -131 24z m104 -81 c12 -60 1
-73 -67 -82 -28 -4 -63 -14 -76 -23 -23 -15 -24 -18 -18 -102 4 -47 11 -124
16 -171 42 -375 61 -584 53 -592 -17 -17 -107 -21 -119 -6 -12 14 -20 75 -63
478 -43 401 -35 380 -137 380 -59 0 -64 2 -73 26 -14 36 -12 94 3 99 30 10
349 43 407 41 l65 -1 9 -47z"></path>
<path style = "fill: red;" d="M3666 1678 c-3 -7 -9 -62 -16 -123 -6 -60 -14 -123 -17 -140 -5 -29
-13 -91 -32 -270 -5 -44 -12 -96 -15 -115 -3 -19 -12 -98 -21 -175 -9 -77 -21
-173 -27 -214 -10 -66 -10 -75 6 -86 24 -18 163 -30 180 -16 15 12 22 53 36
206 23 257 33 327 48 333 8 3 55 0 105 -7 73 -10 93 -9 103 1 13 12 37 175 28
189 -2 4 -27 9 -56 12 -108 12 -148 20 -157 31 -5 6 -3 40 3 81 l12 70 50 -1
c27 0 85 -6 129 -12 44 -7 89 -13 99 -15 17 -2 23 10 37 73 10 41 18 78 19 82
1 22 -115 49 -295 68 -44 5 -106 16 -138 24 -70 19 -77 20 -81 4z m164 -58
c167 -24 265 -42 283 -52 15 -8 18 -17 12 -46 -4 -21 -10 -41 -15 -46 -5 -5
-59 -1 -124 9 -107 16 -117 16 -140 1 -38 -24 -49 -54 -50 -129 -1 -87 14
-102 112 -112 37 -4 73 -12 80 -17 15 -13 16 -72 1 -100 -10 -19 -17 -20 -94
-14 -77 6 -85 5 -110 -16 -24 -21 -28 -34 -45 -168 -10 -80 -21 -189 -25 -242
-4 -55 -12 -101 -19 -107 -7 -6 -32 -7 -61 -3 -42 6 -51 11 -53 30 -4 25 6
119 63 587 19 160 38 317 41 350 9 77 19 98 47 91 12 -3 56 -10 97 -16z"></path>
<path style = "fill: blue;" d="M2390 1649 c-80 -9 -106 -27 -95 -64 3 -11 11 -65 16 -120 22 -215
38 -362 64 -595 8 -74 18 -166 21 -205 9 -98 16 -103 111 -93 83 10 109 26 98
63 -6 20 -19 127 -49 410 -64 596 -67 617 -84 614 -4 -1 -41 -5 -82 -10z m67
-41 c6 -7 13 -38 16 -68 6 -58 55 -508 83 -764 16 -145 16 -150 -2 -163 -12
-9 -38 -13 -69 -11 l-50 3 -7 45 c-4 25 -16 137 -28 250 -11 113 -25 241 -30
285 -5 44 -17 154 -26 244 -17 159 -17 164 1 177 24 17 99 18 112 2z"></path>
<path style = "fill: red;" d="M4245 1597 c-4 -14 -13 -75 -26 -179 -5 -43 -13 -113 -18 -155 -6
-43 -12 -96 -15 -118 -11 -79 -28 -222 -38 -310 -5 -49 -14 -124 -20 -165 -5
-41 -11 -102 -11 -135 l-2 -60 65 -6 c36 -4 74 -8 86 -10 33 -6 54 19 54 64 0
42 8 111 81 699 23 186 39 344 36 352 -4 9 -27 17 -64 20 -32 4 -73 8 -91 11
-20 2 -34 -1 -37 -8z m138 -49 c15 -12 13 -37 -23 -338 -22 -179 -49 -408 -61
-510 -13 -102 -26 -189 -30 -194 -5 -5 -30 -5 -61 0 l-53 9 2 40 c1 22 13 137
28 255 27 224 30 250 65 545 11 99 23 186 25 193 3 7 22 12 48 12 24 0 51 -6
60 -12z"></path>
<path style = "fill: blue;" d="M1185 1581 c-22 -4 -49 -12 -60 -18 -11 -6 -36 -18 -55 -27 -39 -16
-111 -89 -153 -151 -68 -104 -91 -217 -77 -388 11 -125 17 -150 78 -275 44
-91 140 -190 221 -228 31 -14 66 -31 77 -36 12 -6 31 -7 42 -4 11 4 23 2 27
-4 9 -14 140 -3 175 15 14 7 42 21 64 31 100 49 235 237 236 330 0 11 5 25 11
31 24 24 8 296 -21 368 -22 55 -76 157 -94 178 -37 43 -130 112 -181 135 -27
13 -59 28 -69 34 -25 13 -168 19 -221 9z m266 -64 c200 -95 298 -266 301 -526
3 -208 -103 -401 -261 -479 -50 -24 -67 -27 -161 -27 -92 0 -112 3 -161 26
-75 35 -178 134 -218 208 -50 94 -69 160 -81 284 -13 134 1 223 50 324 78 158
208 237 381 229 61 -3 89 -11 150 -39z"></path>
<path style = "fill: blue;" d="M1194 1410 c-74 -17 -139 -91 -175 -197 -19 -57 -21 -80 -16 -172 8
-157 50 -263 134 -343 74 -68 106 -82 188 -82 124 0 208 62 260 192 47 118 43
304 -10 416 -29 61 -102 135 -169 170 -39 21 -62 26 -115 25 -36 -1 -80 -4
-97 -9z m192 -39 c64 -31 141 -106 167 -162 21 -44 49 -260 36 -273 -5 -6 -9
-21 -9 -34 0 -36 -49 -154 -77 -183 -65 -71 -209 -99 -278 -55 -44 28 -135
118 -135 133 0 7 -4 21 -9 31 -40 77 -73 281 -50 309 6 6 8 17 4 22 -3 6 3 29
15 53 11 23 20 48 20 55 0 8 22 36 48 62 46 46 53 49 123 59 41 5 77 10 80 11
3 0 32 -12 65 -28z"></path>
<path style = "fill: red;" d="M4930 1584 c-120 -19 -215 -55 -277 -104 -34 -26 -136 -150 -150
-183 -91 -196 -81 -425 28 -653 38 -79 143 -191 208 -223 66 -31 137 -46 163
-34 13 6 45 19 71 28 79 28 168 126 226 249 49 103 65 145 82 206 6 19 14 44
19 55 5 11 11 35 12 54 3 32 0 35 -32 43 -19 5 -39 14 -45 19 -5 5 -23 9 -40
9 -16 0 -50 9 -74 20 -24 11 -54 20 -67 20 -13 0 -33 5 -43 12 -27 16 -51 -5
-51 -46 0 -17 -7 -40 -15 -50 -21 -28 -20 -85 3 -92 9 -3 29 -12 44 -20 14 -8
33 -14 42 -14 34 0 32 -29 -5 -102 -5 -10 -9 -23 -9 -30 0 -7 -24 -42 -53 -78
-50 -61 -55 -65 -99 -68 -43 -3 -50 0 -86 38 -44 44 -103 158 -123 234 -7 27
-12 90 -12 140 2 245 151 383 388 362 38 -4 80 -13 93 -22 39 -25 62 -15 79
36 8 25 21 52 28 60 8 8 17 27 20 42 6 22 3 29 -11 34 -11 3 -27 10 -36 15
-10 5 -23 9 -30 9 -7 0 -25 6 -39 14 -28 14 -164 27 -209 20z m210 -62 c31
-11 56 -26 58 -35 3 -14 -33 -97 -43 -97 -2 0 -34 7 -72 16 -284 67 -509 -151
-474 -459 19 -165 106 -327 195 -368 54 -24 83 -24 128 4 46 28 81 72 124 162
52 106 45 139 -37 181 -28 14 -49 31 -46 37 2 7 10 29 18 50 13 36 16 38 49
34 64 -8 205 -48 220 -63 12 -12 10 -27 -19 -116 -93 -286 -224 -438 -379
-438 -166 0 -324 197 -368 460 -18 111 -18 179 2 259 49 198 176 333 364 386
71 19 205 14 280 -13z"></path>
<path style = "fill: blue;" d="M1830 1573 c-14 -3 -28 -8 -32 -12 -7 -6 2 -142 22 -321 17 -161 60
-569 67 -643 8 -87 -10 -85 345 -47 104 10 133 23 123 53 -3 12 -9 48 -12 79
-7 70 -19 82 -75 74 -24 -3 -75 -9 -114 -12 -90 -8 -89 -10 -104 157 -6 68
-13 138 -16 154 -2 17 -9 80 -14 140 -14 145 -29 279 -38 335 l-7 45 -60 1
c-33 1 -71 0 -85 -3z m119 -46 c5 -13 14 -73 20 -133 6 -60 18 -172 26 -249 9
-77 20 -189 26 -250 17 -178 35 -196 176 -178 105 13 113 9 121 -66 6 -64 8
-63 -207 -85 -136 -15 -166 -15 -177 -4 -8 8 -22 98 -38 253 -14 132 -30 283
-36 335 -14 129 -28 253 -35 323 -6 53 -5 58 17 66 13 6 40 10 61 10 30 1 39
-3 46 -22z"></path>
<path style = "fill: blue;" d="M115 1443 c-74 -8 -73 -1 -45 -268 6 -55 15 -139 21 -187 5 -49 13
-127 18 -175 6 -49 15 -133 21 -188 6 -55 14 -137 18 -182 4 -45 12 -87 17
-92 12 -11 164 4 177 17 5 5 4 65 -3 140 -14 144 -10 162 39 162 41 0 204 86
264 140 35 31 66 71 88 115 30 59 34 75 34 145 0 45 -6 91 -14 107 -7 15 -20
43 -29 61 -43 90 -174 179 -295 201 -57 10 -226 12 -311 4z m320 -38 c91 -24
140 -49 195 -101 73 -68 105 -140 104 -234 0 -61 -5 -85 -26 -125 -51 -99
-176 -194 -317 -240 -91 -30 -94 -36 -85 -180 6 -119 6 -123 -15 -135 -12 -6
-41 -10 -64 -8 -34 2 -42 7 -44 23 -3 33 -23 224 -33 315 -62 555 -72 661 -60
675 14 17 47 21 180 23 68 1 127 -4 165 -13z"></path>
<path style = "fill: blue;" d="M300 1283 c-63 -12 -72 -60 -49 -243 5 -47 12 -104 15 -128 7 -60 35
-86 82 -77 137 25 252 135 252 239 0 57 -17 93 -66 136 -64 56 -163 87 -234
73z m115 -37 c82 -30 150 -94 161 -150 8 -45 -26 -116 -72 -153 -55 -43 -111
-73 -137 -73 -13 0 -28 -5 -35 -12 -22 -22 -36 9 -43 100 -4 48 -12 132 -17
187 -6 55 -8 103 -6 107 5 8 123 4 149 -6z"></path>
<path style = "fill: red;" d="M5431 1416 c-5 -6 -11 -38 -14 -71 -3 -33 -12 -143 -21 -244 -8 -101
-18 -196 -21 -210 -3 -15 -12 -103 -21 -196 -20 -231 -30 -310 -37 -323 -15
-23 23 -40 109 -47 47 -4 90 -3 94 2 10 10 42 325 45 441 2 111 14 123 105
111 189 -25 249 -32 285 -33 57 -1 68 -11 61 -55 -4 -20 -10 -67 -15 -106 -5
-38 -17 -106 -26 -150 -22 -100 -35 -179 -38 -225 -2 -31 1 -35 23 -38 14 -2
54 -10 88 -18 35 -9 70 -13 77 -11 12 5 16 25 35 172 6 44 15 95 21 113 13 39
26 115 39 232 5 47 18 121 29 165 24 99 41 202 41 244 0 18 7 54 16 81 24 72
13 84 -91 100 -52 8 -89 10 -94 4 -8 -9 -35 -149 -46 -241 -4 -29 -12 -56 -19
-62 -7 -6 -36 -6 -81 0 -85 11 -228 29 -310 38 -56 6 -60 7 -58 31 9 95 23
229 27 252 3 14 0 31 -7 36 -18 14 -186 21 -196 8z m154 -91 c0 -27 -4 -88 -8
-135 -13 -131 -19 -127 239 -158 116 -14 222 -22 238 -18 35 9 49 42 71 176 9
58 22 111 27 117 13 16 86 7 107 -13 12 -11 12 -23 3 -66 -6 -29 -13 -75 -17
-103 -3 -27 -19 -122 -35 -210 -53 -292 -72 -399 -86 -500 -8 -55 -21 -106
-29 -114 -15 -15 -70 -9 -99 12 -17 12 -17 19 3 133 35 196 55 358 48 387 -4
14 -16 31 -26 37 -19 9 -341 50 -400 50 -17 0 -42 -10 -57 -23 -25 -22 -28
-32 -35 -123 -12 -175 -30 -353 -38 -381 -7 -27 -10 -28 -62 -25 -30 2 -57 7
-61 10 -4 4 2 84 12 177 10 94 24 229 30 300 22 265 49 505 56 517 3 5 31 8
62 6 l57 -3 0 -50z"></path>
<path style = "fill: red;" d="M6376 1343 c-2 -10 -8 -50 -11 -89 -8 -85 -4 -89 82 -97 34 -3 66 -8
72 -12 14 -8 14 -71 1 -127 -5 -24 -16 -110 -25 -193 -9 -82 -20 -181 -25
-220 -5 -38 -14 -110 -20 -160 -6 -49 -15 -117 -20 -149 -8 -51 -7 -63 7 -78
9 -10 22 -17 29 -14 6 2 42 0 80 -4 50 -7 72 -6 80 3 6 7 17 71 24 142 12 128
19 188 40 353 26 209 30 242 39 319 5 46 12 87 15 92 6 9 86 7 152 -4 43 -7
51 6 59 102 6 75 5 82 -13 92 -12 6 -43 11 -71 11 -28 0 -70 4 -93 10 -49 11
-317 40 -365 40 -21 0 -33 -6 -37 -17z m219 -39 c72 -8 173 -21 225 -28 l95
-12 -3 -45 c-4 -69 -4 -69 -87 -69 -67 0 -79 -3 -100 -24 -25 -25 -27 -35 -44
-181 -25 -211 -63 -527 -74 -610 l-13 -90 -52 0 c-28 1 -57 6 -62 11 -8 8 -2
87 20 270 38 321 58 484 66 550 9 70 -19 102 -102 119 l-59 12 2 43 c4 81 -6
78 188 54z"></path>
</g>
</svg>